<svg width="100" height="100" viewBox="0 0 100 100" fill="none" xmlns="http://www.w3.org/2000/svg">
<g id="cookie-svgrepo-com (1) 1">
<g id="cookie">
<g id="Group">
<path id="Vector" d="M88.3674 59.6291C84.565 58.1949 81.6686 55.0027 80.6199 51.0898C79.7734 47.9312 80.1781 44.6121 81.759 41.7428C82.5219 40.3582 82.4434 38.6625 81.5562 37.3541C80.6686 36.0457 79.1244 35.3453 77.5537 35.542C77.0307 35.6072 76.4978 35.641 75.9703 35.641C72.6016 35.641 69.4363 34.3307 67.0566 31.9514C64.2859 29.1805 62.9771 25.3545 63.4656 21.4539C63.6621 19.8854 62.9619 18.3395 61.6535 17.452C60.3449 16.5646 58.6496 16.4863 57.265 17.2492C54.4291 18.8113 51.0557 19.2291 47.9182 18.3883C44.0051 17.3397 40.8127 14.4436 39.3787 10.6406C38.6174 8.62266 36.452 7.50703 34.3686 8.05996C26.5164 10.1391 19.3156 14.2885 13.5445 20.0596C4.81055 28.7945 0 40.4084 0 52.7615C0 65.1143 4.81055 76.7281 13.5453 85.4631C22.2787 94.1969 33.8924 99.0072 46.2465 99.0084C46.2479 99.0084 46.2492 99.0084 46.2508 99.0084C58.6016 99.0084 70.2141 94.1979 78.9488 85.4631C84.7195 79.6926 88.8689 72.4918 90.9484 64.6393C91.5004 62.5541 90.3855 60.39 88.3674 59.6291ZM26.0945 50.8318C25.3125 51.6139 24.2279 52.0625 23.1207 52.0625C22.0139 52.0625 20.9316 51.6137 20.1471 50.8318C19.365 50.0471 18.9164 48.9652 18.9164 47.8582C18.9164 46.7539 19.365 45.6689 20.1471 44.8869C20.9318 44.1021 22.0137 43.6539 23.1207 43.6539C24.2277 43.6539 25.3125 44.1023 26.0945 44.8869C26.8766 45.6689 27.325 46.7508 27.325 47.8582C27.3248 48.965 26.8766 50.0498 26.0945 50.8318ZM37.3061 70.4518C36.5213 71.2338 35.4393 71.6824 34.3322 71.6824C33.2281 71.6824 32.1432 71.2338 31.3611 70.4518C30.5764 69.6697 30.1279 68.5852 30.1279 67.4781C30.1279 66.3707 30.5768 65.2889 31.3611 64.5041C32.1432 63.7225 33.2277 63.2738 34.3322 63.2738C35.4393 63.2738 36.5215 63.7223 37.3061 64.5041C38.0881 65.2893 38.5365 66.3707 38.5365 67.4781C38.5361 68.585 38.0881 69.6697 37.3061 70.4518ZM45.7146 42.4232C44.9326 43.2053 43.8479 43.6539 42.7408 43.6539C41.634 43.6539 40.5492 43.2051 39.7697 42.4232C38.985 41.6412 38.5365 40.5566 38.5365 39.4496C38.5365 38.3424 38.9854 37.2604 39.7697 36.4783C40.5518 35.6936 41.6336 35.2453 42.7408 35.2453C43.8479 35.2453 44.9326 35.6938 45.7146 36.4783C46.4967 37.2604 46.9451 38.3422 46.9451 39.4496C46.9447 40.5564 46.4965 41.6412 45.7146 42.4232ZM56.926 78.8604C56.1412 79.6424 55.0592 80.091 53.9521 80.091C52.848 80.091 51.7631 79.6422 50.9785 78.8604C50.1965 78.0783 49.7479 76.9936 49.7479 75.8867C49.7479 74.7793 50.1967 73.6977 50.9785 72.9154C51.7633 72.1307 52.8451 71.6824 53.9521 71.6824C55.0592 71.6824 56.1439 72.1309 56.926 72.9154C57.708 73.6975 58.1564 74.7791 58.1564 75.8867C58.1562 76.9936 57.708 78.0783 56.926 78.8604ZM56.926 59.2402C56.1412 60.0223 55.0592 60.4709 53.9521 60.4709C52.848 60.4709 51.7631 60.0221 50.9785 59.2402C50.1965 58.4582 49.7479 57.3734 49.7479 56.2666C49.7479 55.1592 50.1967 54.0773 50.9785 53.2953C51.7633 52.5106 52.848 52.0623 53.9521 52.0623C55.0592 52.0623 56.1414 52.5107 56.926 53.2953C57.708 54.0773 58.1564 55.159 58.1564 56.2666C58.1562 57.3736 57.708 58.4584 56.926 59.2402Z" fill="black"/>
</g>
</g>
<g id="crumbs">
<g id="Group_2">
<g id="Group_3">
<path id="Vector_2" d="M98.767 43.8418C97.985 43.0598 96.9027 42.6111 95.7957 42.6111C94.6887 42.6111 93.6041 43.06 92.8221 43.8418C92.04 44.6266 91.5914 45.7082 91.5914 46.8154C91.5914 47.9227 92.0402 49.0072 92.8221 49.7893C93.6041 50.5713 94.6885 51.0197 95.7957 51.0197C96.9029 51.0197 97.985 50.5713 98.767 49.7893C99.549 49.0072 100 47.9227 100 46.8154C100 45.7082 99.549 44.6262 98.767 43.8418Z" fill="black"/>
</g>
</g>
<g id="Group_4">
<g id="Group_5">
<path id="Vector_3" d="M53.1842 2.22207C52.4021 1.44004 51.3174 0.9916 50.2103 0.9916C49.1031 0.9916 48.0182 1.44004 47.2392 2.22207C46.4541 3.0041 46.006 4.08867 46.006 5.1959C46.006 6.30019 46.4545 7.38496 47.2392 8.16953C48.0209 8.95156 49.1029 9.40019 50.2103 9.40019C51.3178 9.40019 52.4021 8.95176 53.1842 8.16953C53.9662 7.38476 54.4146 6.3 54.4146 5.1959C54.4146 4.08887 53.9662 3.00664 53.1842 2.22207Z" fill="black"/>
</g>
</g>
<g id="Group_6">
<g id="Group_7">
<path id="Vector_4" d="M78.948 20.0596C78.1689 19.2775 77.0842 18.8291 75.9768 18.8291C74.8668 18.8291 73.7852 19.2775 73.0031 20.0596C72.2211 20.8416 71.7725 21.9262 71.7725 23.0334C71.7725 24.1404 72.2213 25.2225 73.0031 26.0072C73.7852 26.7889 74.8695 27.2377 75.9768 27.2377C77.084 27.2377 78.1658 26.7889 78.948 26.0072C79.7328 25.2221 80.1811 24.1375 80.1811 23.0334C80.1811 21.9262 79.7326 20.8414 78.948 20.0596Z" fill="black"/>
</g>
</g>
</g>
</g>
</svg>
